<svg width="24" height="24" viewBox="0 0 24 24" fill="none" xmlns="http://www.w3.org/2000/svg">
<path fill-rule="evenodd" clip-rule="evenodd" d="M2 10.9333C2 7.02 4.95302 4 8.59574 4H15.5C19.1427 4 22 7.02 22 10.9333V13.0667C22 16.98 19.1427 20 15.5 20H8.59574C4.95302 20 2 16.98 2 13.0667V10.9333ZM7.5 9.33333C7.5 8.44968 8.17745 7.73333 9 7.73333H16C16.8226 7.73333 17.5 8.44968 17.5 9.33333V14.6667C17.5 15.5503 16.8226 16.2667 16 16.2667H9C8.17745 16.2667 7.5 15.5503 7.5 14.6667V9.33333ZM5 10.4C5.38576 10.4 5.75 10.707 5.75 11.0857V12.9143C5.75 13.293 5.38576 13.6 5 13.6C4.61424 13.6 4.25 13.293 4.25 12.9143V11.0857C4.25 10.707 4.61424 10.4 5 10.4Z" fill="white"/>
</svg>
