<svg width="32" height="32" viewBox="0 0 32 32" fill="none" xmlns="http://www.w3.org/2000/svg">
<path d="M9.44818 13.2867C8.76389 13.4113 8.09696 13.6173 7.46164 13.9004C6.82403 14.188 6.22235 14.5494 5.66891 14.9771C5.14333 14.4113 4.70431 13.7709 4.36608 13.0767C4.02147 12.382 3.77506 11.6428 3.63392 10.8802C4.25879 10.4484 4.93986 10.1043 5.65814 9.85734C6.40456 9.6005 7.18437 9.45361 7.97308 9.42127C8.05906 10.1059 8.2253 10.7781 8.46837 11.424C8.71614 12.0832 9.04529 12.709 9.44818 13.2867Z" fill="white"/>
<path d="M13.2921 9.4428L13.2933 9.43621L13.3028 9.4428H13.2921Z" fill="white"/>
<path d="M13.2933 9.43621C12.144 8.64538 10.8217 8.14176 9.43742 7.9677C9.46709 7.19588 9.60854 6.43244 9.85734 5.70121C10.1055 4.96801 10.4533 4.2724 10.891 3.63392C12.4246 3.90687 13.8481 4.613 14.9933 5.66891C14.5667 6.21347 14.2053 6.80611 13.9166 7.43472C13.6281 8.07403 13.4188 8.74617 13.2933 9.43621Z" fill="white"/>
<path d="M24.1077 7.9031C24.8604 7.93129 25.607 8.0506 26.3311 8.25841C27.0988 8.47732 27.8379 8.78633 28.533 9.179C28.5258 8.37467 28.4136 7.57472 28.1992 6.79946C27.9968 6.06349 27.7058 5.35485 27.3324 4.6891C26.6671 4.31361 25.9584 4.02073 25.2221 3.81696C24.445 3.60254 23.6432 3.49033 22.8371 3.48318C23.2304 4.17675 23.5411 4.91393 23.7631 5.67968C23.9644 6.40482 24.08 7.15105 24.1077 7.9031Z" fill="white"/>
<path d="M16.0323 4.54374C16.5794 4.03846 17.1827 3.5977 17.8304 3.23015C18.5281 2.84439 19.269 2.54261 20.0377 2.33109C18.9118 1.22622 17.5247 0.424289 16.0054 0C15.2698 0.203225 14.5626 0.49804 13.9004 0.877524C13.199 1.27392 12.5529 1.76082 11.9785 2.32571C12.747 2.54007 13.4878 2.84362 14.1857 3.23015C14.8403 3.59731 15.4508 4.03803 16.0054 4.54374H16.0323Z" fill="white"/>
<path d="M5.69583 17.0336L5.68451 17.0459L5.66891 17.0336H5.69583Z" fill="white"/>
<path d="M5.68451 17.0459C6.22438 17.4693 6.81174 17.8283 7.43472 18.1157C8.07429 18.4098 8.74927 18.6197 9.4428 18.7402C9.04948 19.3134 8.72597 19.9315 8.47914 20.5814C8.22879 21.2353 8.0571 21.9166 7.9677 22.611C7.20389 22.5718 6.44967 22.4232 5.72813 22.1696C4.99471 21.9195 4.29912 21.5699 3.66083 21.1306C3.79612 20.3838 4.03343 19.6592 4.36608 18.9771C4.70955 18.2728 5.15369 17.6223 5.68451 17.0459Z" fill="white"/>
<path d="M7.93001 7.88156C7.95862 7.12883 8.07792 6.3823 8.28533 5.65814C8.50562 4.89263 8.81458 4.15547 9.20592 3.46164C7.62031 3.47915 6.06549 3.90168 4.6891 4.6891C3.91361 6.05955 3.49868 7.60443 3.48318 9.179C4.177 8.78766 4.91416 8.4787 5.67968 8.25841C6.40383 8.05101 7.15037 7.93171 7.9031 7.9031L7.93001 7.88156Z" fill="white"/>
<path d="M17.0821 5.64738C17.5081 6.20198 17.8694 6.80346 18.1588 7.44011C18.4437 8.07521 18.6516 8.74214 18.7779 9.42665C19.3556 9.02376 19.9814 8.69461 20.6406 8.44684C21.277 8.21354 21.9382 8.05457 22.611 7.97308C22.5734 7.18499 22.4266 6.40592 22.175 5.65814C21.9262 4.93965 21.5802 4.25859 21.1467 3.63392C20.3842 3.77506 19.6449 4.02147 18.9502 4.36608C18.252 4.70304 17.6079 5.14214 17.039 5.66891L17.0821 5.64738Z" fill="white"/>
<path d="M28.4199 10.8587C27.7814 10.421 27.0858 10.0732 26.3526 9.82503C25.6214 9.57624 24.858 9.43479 24.0861 9.40511C23.9959 10.0971 23.8261 10.7763 23.5801 11.4293C23.3314 12.0794 23.0061 12.6975 22.611 13.2705C23.3034 13.3959 23.9778 13.6056 24.6191 13.895C25.2488 14.1849 25.8431 14.5462 26.3903 14.9717C26.9206 14.3891 27.3664 13.7349 27.7147 13.0283C28.0345 12.3466 28.2573 11.6236 28.3769 10.8802L28.4199 10.8587Z" fill="white"/>
<path d="M22.568 18.7295C22.9713 19.3061 23.2987 19.9321 23.5424 20.5922C23.786 21.2438 23.9539 21.9212 24.0431 22.611C24.8393 22.5707 25.6258 22.4184 26.3795 22.1588C27.0985 21.9111 27.7797 21.565 28.4038 21.1306C28.2645 20.3682 28.0199 19.629 27.677 18.9341C27.3348 18.2424 26.8942 17.6041 26.3688 17.039C25.8142 17.4651 25.2127 17.8263 24.576 18.1157C23.934 18.4008 23.2597 18.6069 22.568 18.7295Z" fill="white"/>
<path d="M3.23015 14.1857C2.84548 13.4875 2.54374 12.7467 2.33109 11.9785C1.76621 12.5529 1.2793 13.199 0.882907 13.9004C0.501557 14.5623 0.204929 15.2695 0 16.0054C0.204133 16.7424 0.49889 17.4513 0.877524 18.1157C1.27262 18.8163 1.75967 19.4609 2.32571 20.0323C2.53991 19.2654 2.84347 18.5264 3.23015 17.8304C3.59764 17.173 4.04027 16.5606 4.54913 16.0054C4.04153 15.4511 3.599 14.8406 3.23015 14.1857Z" fill="white"/>
<path d="M29.6958 11.9785L29.6922 11.9914L29.6797 11.9785H29.6958Z" fill="white"/>
<path d="M29.6922 11.9914C30.783 13.1168 31.5762 14.4963 32 16.0054C31.7959 16.7424 31.5011 17.4513 31.1225 18.1157C30.7293 18.8161 30.244 19.4607 29.6797 20.0323C29.4654 19.2655 29.1618 18.5265 28.7752 17.8304C28.4115 17.1707 27.9685 16.5578 27.4563 16.0054C27.9729 15.4548 28.4212 14.8438 28.7914 14.1857C29.1758 13.4917 29.4781 12.7553 29.6922 11.9914Z" fill="white"/>
<path d="M24.1077 24.1131C24.079 24.864 23.9597 25.6088 23.7524 26.3311C23.5358 27.0996 23.2267 27.839 22.8318 28.533C23.6379 28.5258 24.4396 28.4136 25.2167 28.1992C25.952 27.9949 26.6604 27.7039 27.3271 27.3324C27.6985 26.6658 27.9895 25.9574 28.1938 25.2221C28.4105 24.4435 28.5245 23.6399 28.533 22.8318C27.8398 23.2257 27.1025 23.5365 26.3365 23.7577C25.6095 23.9607 24.8617 24.08 24.1077 24.1131Z" fill="white"/>
<path d="M16.0054 27.4563C15.4539 27.9672 14.8429 28.4101 14.1857 28.7752C13.4887 29.1623 12.7476 29.4642 11.9785 29.6743C12.5514 30.2408 13.1979 30.7279 13.9004 31.1225C14.5626 31.502 15.2698 31.7968 16.0054 32C16.7424 31.7959 17.4513 31.5011 18.1157 31.1225C18.8183 30.7279 19.4647 30.2408 20.0377 29.6743C19.2682 29.4652 18.527 29.1633 17.8304 28.7752C17.1707 28.4115 16.5578 27.9685 16.0054 27.4563Z" fill="white"/>
<path d="M14.9771 26.3311C14.5494 25.7777 14.188 25.176 13.9004 24.5384C13.618 23.9046 13.412 23.2396 13.2867 22.5572C12.7101 22.9605 12.0841 23.288 11.424 23.5316C10.7776 23.774 10.1057 23.942 9.42127 24.0323C9.45047 24.8319 9.59741 25.6228 9.85734 26.3795C10.1043 27.0978 10.4484 27.7789 10.8802 28.4038C11.6425 28.2645 12.3818 28.0199 13.0767 27.677C13.7717 27.3266 14.4119 26.8769 14.9771 26.3419V26.3311Z" fill="white"/>
<path d="M18.7456 22.5626L18.7419 22.5838L18.7187 22.568L18.7456 22.5626Z" fill="white"/>
<path d="M18.7419 22.5838C18.6208 23.2699 18.4122 23.9376 18.1211 24.5707C17.8315 25.2005 17.4702 25.7948 17.0444 26.3419C17.6251 26.8745 18.2797 27.3206 18.9879 27.6662C19.67 27.9989 20.3946 28.2362 21.1413 28.3715C21.5817 27.7338 21.9314 27.0381 22.1804 26.3042C22.4355 25.5761 22.5806 24.814 22.611 24.0431C21.9192 23.9521 21.2401 23.7823 20.5868 23.537C19.9362 23.2935 19.3169 22.9735 18.7419 22.5838Z" fill="white"/>
<path d="M7.9031 24.1131C7.1509 24.0791 6.40498 23.9599 5.67968 23.7577C4.91392 23.5357 4.17675 23.225 3.48318 22.8318C3.49033 23.6379 3.60254 24.4396 3.81696 25.2167C4.02073 25.953 4.31361 26.6617 4.6891 27.3271C5.35484 27.7004 6.06349 27.9914 6.79946 28.1938C7.57472 28.4082 8.37467 28.5205 9.179 28.5276C8.78672 27.8342 8.47772 27.097 8.25841 26.3311C8.05102 25.6088 7.93172 24.864 7.9031 24.1131Z" fill="white"/>
</svg>
