<svg width="24" height="24" viewBox="0 0 24 24" fill="none" xmlns="http://www.w3.org/2000/svg">
<path d="M16.4647 14.9631H15.677L15.3977 14.6941C16.5944 13.2988 17.2126 11.3953 16.8736 9.37226C16.4049 6.60173 14.0914 4.38929 11.2993 4.05045C7.08129 3.53223 3.53134 7.08009 4.04987 11.2957C4.38891 14.0861 6.60265 16.3982 9.3748 16.8666C11.3991 17.2055 13.3037 16.5876 14.6997 15.3917L14.969 15.6707V16.458L19.207 20.6935C19.6158 21.1021 20.2839 21.1021 20.6928 20.6935C21.1016 20.2849 21.1016 19.6172 20.6928 19.2086L16.4647 14.9631ZM10.4817 14.9631C7.99869 14.9631 5.99437 12.96 5.99437 10.4785C5.99437 7.99696 7.99869 5.99381 10.4817 5.99381C12.9646 5.99381 14.969 7.99696 14.969 10.4785C14.969 12.96 12.9646 14.9631 10.4817 14.9631Z" fill="#00888F"/>
</svg>
