<svg width="16" height="16" viewBox="0 0 16 16" fill="none" xmlns="http://www.w3.org/2000/svg">
<path d="M12.2448 3.75939C11.9198 3.43439 11.3948 3.43439 11.0698 3.75939L7.99796 6.82286L4.93242 3.7573C4.60742 3.4323 4.08242 3.4323 3.75742 3.7573C3.43242 4.0823 3.43242 4.6073 3.75742 4.9323L6.82296 7.99786L3.75741 11.0676C3.43241 11.3926 3.43241 11.9176 3.75741 12.2426C4.08241 12.5676 4.60741 12.5676 4.93241 12.2426L7.99796 9.17286L11.0677 12.2426C11.3927 12.5676 11.9177 12.5676 12.2427 12.2426C12.5677 11.9176 12.5677 11.3926 12.2427 11.0676L9.17296 7.99786L12.2448 4.92606C12.5615 4.60939 12.5615 4.07606 12.2448 3.75939Z" fill="white"/>
</svg>
