<svg width="24" height="24" viewBox="0 0 24 24" fill="none" xmlns="http://www.w3.org/2000/svg">
<path d="M16.4647 14.9622H15.677L15.3977 14.6931C16.5944 13.2979 17.2126 11.3944 16.8736 9.37128C16.4049 6.60075 14.0914 4.38832 11.2993 4.04948C7.08129 3.53125 3.53134 7.07912 4.04987 11.2947C4.38891 14.0852 6.60265 16.3973 9.3748 16.8657C11.3991 17.2045 13.3037 16.5866 14.6997 15.3907L14.969 15.6697V16.4571L19.207 20.6926C19.6158 21.1012 20.2839 21.1012 20.6928 20.6926C21.1016 20.284 21.1016 19.6163 20.6928 19.2076L16.4647 14.9622ZM10.4817 14.9622C7.99869 14.9622 5.99437 12.959 5.99437 10.4775C5.99437 7.99598 7.99869 5.99283 10.4817 5.99283C12.9646 5.99283 14.969 7.99598 14.969 10.4775C14.969 12.959 12.9646 14.9622 10.4817 14.9622Z" fill="#9F9FA7"/>
</svg>
