<svg width="288" height="80" viewBox="0 0 288 80" fill="none" xmlns="http://www.w3.org/2000/svg">
<g clip-path="url(#clip0)">
<path d="M18.4567 45.3699C19.9948 46.0274 21.7526 46.6849 23.5104 46.9041C22.6315 48.4384 21.7526 49.9726 21.0934 51.5068C20.4343 53.0411 19.9948 54.7945 19.7751 56.5479C17.7976 56.5479 16.0398 56.1096 14.0623 55.4521C12.3045 54.7945 10.5467 53.9178 9.00865 52.8219C9.66782 49.0959 11.4256 45.3699 14.0623 42.5205C15.6003 43.8356 16.9187 44.7123 18.4567 45.3699ZM19.7751 19.726C19.7751 17.7534 20.2145 16 20.654 14.2466C21.0934 12.274 21.9723 10.5205 22.8512 8.76712C20.8737 8.76712 18.8962 8.9863 16.9187 9.42466C15.1609 9.86301 13.4031 10.7397 11.6453 11.6164C10.7664 13.3699 9.88754 15.1233 9.4481 16.8767C9.00865 18.8493 8.78893 21.0411 8.78893 23.0137C10.5467 21.9178 12.3045 21.2603 14.282 20.6027C16.0398 20.1644 17.7976 19.9452 19.7751 19.726ZM8.12976 35.5069C7.25086 33.7534 6.37197 31.7808 5.93253 30.0274C3.07612 32.8767 1.09862 36.3836 0 40.1096C1.09862 43.8356 3.07612 47.3425 5.7128 50.1918C6.15225 48.2192 7.03114 46.4658 7.91003 44.7123C8.78893 42.9589 9.88754 41.4247 11.2059 40.1096C10.1073 38.7945 9.00865 37.2603 8.12976 35.5069ZM37.3529 65.9726C36.2543 64.6575 35.3754 63.1233 34.7163 61.589C34.0571 60.0548 33.3979 58.3014 33.1782 56.5479C31.6401 57.6438 30.1021 58.3014 28.564 58.9589C27.0259 59.6164 25.2682 60.0548 23.5104 60.274C23.5104 62.2466 23.9498 64.2192 24.609 65.9726C25.2682 67.726 26.1471 69.4795 27.2457 71.0137C29.2232 70.5753 30.981 70.137 32.7388 69.2603C34.4965 68.6027 36.0346 67.2877 37.3529 65.9726ZM19.7751 60.4932C17.7976 60.4932 16.0398 60.0548 14.282 59.6164C12.3045 59.1781 10.5467 58.3014 8.78893 57.2055C8.78893 59.1781 9.00865 61.1507 9.66782 63.1233C10.1073 64.8767 10.9862 66.8493 11.8651 68.3836C13.6228 69.2603 15.3806 70.137 17.1384 70.5753C19.1159 71.0137 21.0934 71.452 23.0709 71.452C21.9723 69.9178 21.0934 67.9452 20.654 65.9726C19.9948 64.2192 19.7751 62.2466 19.7751 60.4932ZM33.1782 23.6712C33.3979 21.9178 34.0571 20.1644 34.7163 18.6301C35.3754 17.0959 36.2543 15.5616 37.3529 14.2466C34.4965 11.6164 30.981 9.86301 27.026 9.20548C25.9273 10.7397 25.0484 12.4932 24.3893 14.4658C23.7301 16.2192 23.5104 18.1918 23.2907 20.1644C25.0484 20.3836 26.8062 20.8219 28.3443 21.4795C30.1021 21.9178 31.6401 22.5753 33.1782 23.6712ZM70.7509 27.3973C69.2128 26.3014 67.455 25.4247 65.6972 24.7671C63.9394 24.1096 61.9619 23.8904 59.9844 23.6712C59.7647 25.4247 59.3253 27.1781 58.6661 28.7123C58.0069 30.2466 57.128 31.7808 56.2491 33.3151C58.0069 33.5342 59.7647 34.1918 61.3028 34.8493C62.8408 35.5069 64.3789 36.3836 65.6972 37.4795C68.3339 34.6301 70.0917 31.1233 70.7509 27.3973ZM60.2042 19.726C62.1817 19.726 63.9394 20.1644 65.6972 20.6027C67.6747 21.0411 69.4325 21.9178 71.1903 23.0137C71.1903 21.0411 70.9706 19.0685 70.3114 17.0959C69.872 15.3425 68.9931 13.3699 68.1142 11.8356C66.3564 10.9589 64.5986 10.0822 62.8408 9.64384C61.083 8.9863 59.1055 8.76712 57.128 8.76712C58.2266 10.5205 58.8858 12.4932 59.3253 14.2466C59.7647 16 60.2042 17.9726 60.2042 19.726ZM56.2491 46.9041C57.3478 48.4384 58.0069 49.9726 58.6661 51.5068C59.3253 53.0411 59.7647 54.7945 59.9844 56.5479C61.9619 56.5479 63.9394 56.1096 65.6972 55.4521C67.455 54.7945 69.2128 53.9178 70.7509 52.8219C70.3114 50.8493 69.872 49.0959 68.9931 47.3425C68.1142 45.589 67.0156 44.0548 65.6972 42.5205C64.3789 43.6164 62.8408 44.4931 61.3028 45.1507C59.7647 46.0274 58.0069 46.6849 56.2491 46.9041ZM39.9896 11.3973C41.308 10.0822 42.846 8.9863 44.6038 8.10959C46.3616 7.23288 48.1194 6.35616 50.0969 5.91781C48.5588 4.38356 47.0208 3.28767 45.263 2.19178C43.5052 1.31507 41.7474 0.438356 39.9896 0C36.2543 1.09589 32.7388 3.06849 29.8824 5.91781C31.8599 6.35616 33.6176 7.23288 35.3754 8.10959C37.1332 8.9863 38.6713 10.0822 39.9896 11.3973ZM42.6263 14.2466C43.7249 15.5616 44.6038 17.0959 45.263 18.6301C45.9221 20.1644 46.5813 21.9178 46.801 23.6712C48.3391 22.5753 49.8772 21.9178 51.4152 21.2603C52.9533 20.6027 54.7111 20.1644 56.4689 19.9452C56.4689 17.9726 56.0294 16 55.3702 14.2466C54.7111 12.4932 53.8322 10.7397 52.7336 9.20548C50.7561 9.64384 48.9983 10.0822 47.2405 10.9589C45.4827 11.8356 43.9446 12.9315 42.6263 14.2466ZM39.9896 68.8219C38.6713 70.137 37.1332 71.2329 35.3754 72.1096C33.6176 72.9863 31.8599 73.863 29.8824 74.3014C31.4204 75.6164 32.9585 76.9315 34.7163 77.8082C36.474 78.6849 38.2318 79.5616 39.9896 80C43.7249 78.9041 47.2405 76.9315 50.0969 74.0822C48.1194 73.6438 46.3616 72.7671 44.6038 71.8904C42.846 71.2329 41.308 70.137 39.9896 68.8219ZM21.0934 28.7123C20.4343 27.1781 19.9948 25.4247 19.7751 23.6712C17.7976 23.6712 15.8201 24.1096 14.0623 24.7671C12.3045 25.4247 10.5467 26.3014 9.00865 27.3973C9.4481 29.3699 9.88754 31.1233 10.7664 32.8767C11.6453 34.6301 12.7439 36.1644 14.0623 37.6986C15.3806 36.6027 16.9187 35.726 18.4567 35.0685C19.9948 34.411 21.7526 33.7534 23.5104 33.5342C22.6315 31.7808 21.7526 30.2466 21.0934 28.7123ZM46.801 56.5479C46.5813 58.3014 45.9221 60.0548 45.263 61.589C44.6038 63.1233 43.7249 64.6575 42.6263 65.9726C45.4827 68.6027 48.9983 70.3562 52.9533 71.0137C54.0519 69.4795 54.9308 67.726 55.59 65.7534C56.2491 64 56.4689 62.0274 56.6886 60.0548C54.9308 59.8356 53.173 59.3973 51.6349 58.7397C49.6574 58.5205 48.1194 57.6438 46.801 56.5479ZM74.0467 30.0274C73.6073 32 72.7284 33.7534 71.8495 35.5069C70.9706 37.2603 69.872 38.7945 68.5536 40.1096C69.872 41.4247 70.9706 42.9589 71.8495 44.7123C72.7284 46.4658 73.6073 48.4384 74.0467 50.1918C76.9031 47.3425 78.8806 43.8356 79.7595 40.1096C78.8806 36.3836 76.9031 32.8767 74.0467 30.0274ZM60.2042 60.4932C60.2042 62.4658 59.7647 64.2192 59.3253 65.9726C58.8858 67.9452 58.0069 69.6986 56.9083 71.452C58.8858 71.452 60.8633 71.2329 62.8408 70.5753C64.5986 70.137 66.3564 69.2603 68.1142 68.3836C68.9931 66.6301 69.872 64.8767 70.3114 63.1233C70.7509 61.1507 71.1903 59.1781 71.1903 57.2055C69.4325 58.3014 67.6747 58.9589 65.6972 59.6164C63.9394 60.0548 62.1817 60.274 60.2042 60.4932Z" fill="white"/>
<path d="M268.729 18.3745L275.613 35.8721H275.626L282.721 18.3745H288.202L276.497 45.1169C275.939 46.4648 275.183 47.7222 274.255 48.8481C273.469 49.7777 272.484 50.5182 271.372 51.0145C270.213 51.4981 268.966 51.7356 267.71 51.7121C267.047 51.7131 266.385 51.6725 265.727 51.5905C265.057 51.5088 264.394 51.3696 263.748 51.1745V46.8641C264.504 46.9377 265.125 46.9825 265.59 47.0209C266.054 47.0593 266.39 47.0593 266.586 47.0593C267.318 47.0743 268.048 46.9662 268.745 46.7393C269.4 46.5182 269.993 46.1442 270.475 45.6481C271.048 45.0329 271.504 44.3182 271.82 43.5393L272.781 41.2993L265.055 22.8225H255.124V34.1121C255.086 34.9601 255.272 35.8032 255.662 36.5569C256.016 37.1709 256.577 37.6393 257.245 37.8785C258.088 38.1675 258.977 38.2998 259.868 38.2689C260.237 38.2689 260.666 38.2497 261.198 38.2017C261.73 38.1537 262.338 38.0961 263.049 38.0225V42.3745C262.242 42.5473 261.486 42.6753 260.775 42.7745C260.117 42.8616 259.455 42.9075 258.792 42.9121C257.159 42.9582 255.536 42.6435 254.038 41.9905C252.756 41.4175 251.692 40.4469 251.005 39.2225C250.303 37.9841 249.938 36.4257 249.938 34.5537V22.8225H246.02V18.3745H249.938V12.0705H255.124V18.3745H268.729Z" fill="white"/>
<path d="M126.151 42.3681V18.3681H131.276V42.3681H126.151Z" fill="white"/>
<path d="M126.958 6.46413C127.503 6.15489 128.119 5.99482 128.745 6.00013C129.353 6.00092 129.95 6.15615 130.481 6.45118C131.011 6.74621 131.458 7.17134 131.779 7.68653C132.102 8.20738 132.27 8.80855 132.266 9.42093C132.273 10.0287 132.106 10.6259 131.785 11.1425C131.477 11.6455 131.045 12.061 130.53 12.3489C129.981 12.643 129.367 12.7969 128.744 12.7969C128.121 12.7969 127.507 12.643 126.958 12.3489C126.443 12.0602 126.011 11.6449 125.702 11.1425C125.383 10.6254 125.216 10.0286 125.222 9.42093C125.218 8.80955 125.385 8.20921 125.702 7.68653C126.01 7.17873 126.442 6.75793 126.958 6.46413Z" fill="white"/>
<path d="M174.179 37.8721C175.022 38.1597 175.911 38.292 176.802 38.2625L176.796 38.2689C177.164 38.2657 177.593 38.2433 178.125 38.2017C178.643 38.1613 179.236 38.0996 179.919 38.0285L179.977 38.0225V42.3745C179.172 42.5473 178.413 42.6807 177.702 42.7745C177.045 42.8633 176.383 42.9092 175.719 42.9121C174.086 42.9566 172.464 42.642 170.966 41.9905C169.685 41.4146 168.622 40.4447 167.932 39.2225C167.234 37.9841 166.865 36.4257 166.865 34.5537V22.8225H162.951V18.3745H166.875V12.0673H172.058V18.3745H179.202V22.8225H172.058V34.1057C172.02 34.9537 172.205 35.7968 172.596 36.5505C172.951 37.164 173.511 37.6322 174.179 37.8721Z" fill="white"/>
<path d="M191.723 18.9633C192.968 18.3845 194.329 18.0977 195.702 18.1249L195.68 18.1313C196.027 18.129 196.373 18.1504 196.717 18.1953C197.035 18.2401 197.345 18.3041 197.637 18.3745V22.9281H196.074C194.82 22.904 193.578 23.169 192.444 23.7025C191.41 24.1962 190.542 24.9801 189.946 25.9585C189.31 27.0554 188.991 28.3074 189.026 29.5745V42.3745H183.901V18.3745H188.706V21.4977C189.495 20.425 190.53 19.5561 191.723 18.9633Z" fill="white"/>
<path d="M200.927 42.3681V18.3681H206.052V42.3681H200.927Z" fill="white"/>
<path d="M201.734 6.46733C202.278 6.15666 202.895 5.99649 203.521 6.00333C204.129 6.00291 204.727 6.15762 205.258 6.45277C205.788 6.74792 206.235 7.17371 206.555 7.68973C206.879 8.20996 207.049 8.81134 207.045 9.42413C207.051 10.0308 206.885 10.6268 206.565 11.1425C206.256 11.6449 205.823 12.0602 205.309 12.3489C204.759 12.643 204.145 12.7969 203.521 12.7969C202.898 12.7969 202.284 12.643 201.734 12.3489C201.219 12.0602 200.787 11.6449 200.478 11.1425C200.161 10.6258 199.994 10.0305 199.998 9.42413C199.995 8.81284 200.161 8.21268 200.478 7.68973C200.785 7.18122 201.217 6.76021 201.734 6.46733Z" fill="white"/>
<path d="M218.606 18.7386C220.16 18.1176 221.824 17.8133 223.498 17.8433L223.494 17.8369C224.898 17.8244 226.294 18.0483 227.623 18.4993C228.871 18.9298 230.03 19.5801 231.048 20.4193C232.065 21.264 232.931 22.2745 233.611 23.4081L229.988 26.2433C228.277 23.8007 226.124 22.5793 223.53 22.5793C222.5 22.5631 221.478 22.7513 220.522 23.1329C219.6 23.5157 218.773 24.0932 218.097 24.8257C217.409 25.547 216.873 26.3977 216.517 27.3281C216.159 28.2944 215.982 29.3185 215.995 30.3489C215.981 31.4013 216.158 32.4476 216.517 33.4369C216.869 34.3787 217.406 35.2406 218.097 35.9713C219.527 37.4369 221.343 38.1697 223.542 38.1697C224.777 38.1812 225.992 37.8666 227.066 37.2577C228.227 36.5767 229.227 35.6546 230 34.5537L233.623 37.3409C231.323 41.0551 227.947 42.9121 223.494 42.9121C221.822 42.9443 220.16 42.6427 218.607 42.0251C217.053 41.4075 215.638 40.4862 214.445 39.3153C213.251 38.1526 212.31 36.7573 211.678 35.216C211.047 33.6748 210.739 32.0203 210.774 30.3553C210.759 28.6871 211.072 27.0322 211.696 25.4849C212.328 23.9701 213.264 22.6002 214.445 21.4593C215.637 20.2846 217.051 19.3596 218.606 18.7386Z" fill="white"/>
<path d="M237.615 42.3809V18.3809H242.74V42.3809H237.615Z" fill="white"/>
<path d="M238.422 6.47693C238.966 6.16907 239.581 6.01011 240.206 6.01613C240.814 6.01416 241.412 6.16786 241.943 6.46254C242.474 6.75723 242.92 7.18306 243.24 7.69933C243.563 8.21992 243.733 8.82106 243.73 9.43373C243.737 10.0415 243.57 10.6387 243.249 11.1553C242.94 11.6576 242.508 12.0728 241.994 12.3617C241.447 12.6626 240.831 12.8169 240.206 12.8097C239.582 12.8189 238.967 12.6644 238.422 12.3617C237.906 12.0747 237.473 11.6591 237.166 11.1553C236.846 10.6385 236.678 10.0417 236.682 9.43373C236.68 8.82207 236.848 8.22175 237.166 7.69933C237.472 7.19018 237.905 6.76899 238.422 6.47693Z" fill="white"/>
<path fill-rule="evenodd" clip-rule="evenodd" d="M101.126 21.3057C102.968 19.0881 106.146 17.8369 108.66 17.8369C110.326 17.8131 111.98 18.1205 113.526 18.7413C115.072 19.3621 116.479 20.2839 117.665 21.4529C118.883 22.5887 119.847 23.9678 120.496 25.5004C121.145 27.0331 121.464 28.6851 121.432 30.3489C121.448 32.0224 121.127 33.682 120.487 35.2289C119.824 36.7574 118.865 38.1397 117.665 39.2961C116.479 40.4652 115.072 41.387 113.526 42.0077C111.98 42.6285 110.326 42.936 108.66 42.9121C106.972 42.9037 105.301 42.578 103.734 41.9521C102.211 41.3214 100.827 40.3996 99.659 39.2385C98.4773 38.0994 97.5419 36.7305 96.9106 35.2161C96.2912 33.6689 95.9821 32.0152 96.0008 30.3489V6.74253H101.126V21.3057ZM105.752 23.1233C106.695 22.7422 107.701 22.5403 108.718 22.5281H108.731C109.728 22.5403 110.715 22.7423 111.636 23.1233C112.539 23.5199 113.35 24.0997 114.016 24.8257C114.714 25.5396 115.259 26.3877 115.618 27.3185C115.992 28.3024 116.177 29.3479 116.163 30.4001C116.175 31.4376 115.99 32.468 115.618 33.4369C115.255 34.3783 114.711 35.2394 114.016 35.9713C113.338 36.6832 112.519 37.2466 111.611 37.6257C109.721 38.3512 107.629 38.3512 105.739 37.6257C104.838 37.243 104.024 36.68 103.349 35.9713C102.656 35.2422 102.117 34.38 101.767 33.4369C101.41 32.4645 101.233 31.4356 101.245 30.4001C101.231 29.3499 101.408 28.3059 101.767 27.3185C102.49 25.45 103.922 23.9422 105.752 23.1233Z" fill="white"/>
<path fill-rule="evenodd" clip-rule="evenodd" d="M148.67 17.8305C146.984 17.8123 145.311 18.1221 143.744 18.7425C142.22 19.3685 140.835 20.2872 139.666 21.4465C138.485 22.5877 137.55 23.9575 136.917 25.4721C135.691 28.6047 135.691 32.0835 136.917 35.2161C137.55 36.7298 138.485 38.0985 139.666 39.2385C140.834 40.4007 142.22 41.3227 143.744 41.9521C145.309 42.5844 146.982 42.9103 148.67 42.9121C150.343 42.934 152.004 42.624 153.555 42.0001C155.091 41.3736 156.49 40.4553 157.675 39.2961C159.463 37.5312 160.685 35.2755 161.187 32.8153C161.689 30.3552 161.448 27.8015 160.494 25.4785C159.84 23.9583 158.88 22.5883 157.675 21.4529C156.489 20.2839 155.082 19.3621 153.536 18.7413C151.99 18.1205 150.336 17.8131 148.67 17.8369V17.8305ZM151.624 23.1169C150.706 22.7223 149.717 22.5197 148.718 22.5217C147.7 22.5196 146.691 22.722 145.752 23.1169C144.837 23.5094 144.014 24.0893 143.337 24.8193C142.646 25.535 142.108 26.383 141.754 27.3121C141.397 28.2999 141.22 29.3436 141.232 30.3937C141.223 31.4291 141.4 32.4577 141.754 33.4305C142.104 34.374 142.642 35.2364 143.337 35.9649C144.008 36.6786 144.822 37.2425 145.726 37.6193C147.616 38.3448 149.708 38.3448 151.598 37.6193C152.509 37.2453 153.329 36.6813 154.004 35.9649C154.698 35.2327 155.242 34.3717 155.606 33.4305C156.332 31.4556 156.332 29.2871 155.606 27.3121C155.238 26.3858 154.694 25.5393 154.004 24.8193C153.335 24.0957 152.525 23.5163 151.624 23.1169Z" fill="white"/>
<path d="M96 66.832L97.8 65.464C98.952 67.144 100.336 67.984 101.952 67.984C102.768 67.984 103.424 67.784 103.92 67.384C104.432 66.984 104.688 66.448 104.688 65.776C104.688 65.232 104.52 64.808 104.184 64.504C103.848 64.184 103.24 63.816 102.36 63.4L100.608 62.584C99.376 62.024 98.448 61.408 97.824 60.736C97.216 60.048 96.912 59.2 96.912 58.192C96.912 56.928 97.392 55.896 98.352 55.096C99.312 54.296 100.496 53.896 101.904 53.896C103.008 53.896 104.008 54.152 104.904 54.664C105.816 55.176 106.52 55.864 107.016 56.728L105.24 58.096C104.376 56.816 103.264 56.176 101.904 56.176C101.2 56.176 100.624 56.344 100.176 56.68C99.728 57.016 99.504 57.488 99.504 58.096C99.52 58.384 99.552 58.624 99.6 58.816C99.664 58.992 99.816 59.184 100.056 59.392C100.296 59.584 100.464 59.704 100.56 59.752C100.656 59.8 100.968 59.96 101.496 60.232C101.592 60.28 101.664 60.32 101.712 60.352L103.488 61.168C104.816 61.776 105.776 62.424 106.368 63.112C106.976 63.8 107.28 64.656 107.28 65.68C107.28 67.04 106.776 68.144 105.768 68.992C104.776 69.84 103.512 70.264 101.976 70.264C100.696 70.264 99.536 69.96 98.496 69.352C97.456 68.744 96.624 67.904 96 66.832Z" fill="white"/>
<path d="M110.246 65.056V58.216H112.742V65.248C112.742 66.048 112.99 66.696 113.486 67.192C113.982 67.688 114.622 67.936 115.406 67.936C116.158 67.936 116.774 67.688 117.254 67.192C117.75 66.696 117.998 66.048 117.998 65.248V58.216H120.518V65.056C120.518 66.608 120.03 67.864 119.054 68.824C118.094 69.784 116.878 70.264 115.406 70.264C113.902 70.264 112.662 69.792 111.686 68.848C110.726 67.888 110.246 66.624 110.246 65.056Z" fill="white"/>
<path d="M136.294 64.096C136.294 65.856 135.742 67.328 134.638 68.512C133.55 69.68 132.174 70.264 130.51 70.264C128.878 70.264 127.566 69.696 126.574 68.56V74.32H124.054V58.216H126.406V59.872C127.302 58.592 128.67 57.952 130.51 57.952C132.174 57.952 133.55 58.544 134.638 59.728C135.742 60.896 136.294 62.352 136.294 64.096ZM132.67 66.88C133.358 66.16 133.702 65.24 133.702 64.12C133.702 63 133.358 62.08 132.67 61.36C131.982 60.624 131.126 60.256 130.102 60.256C129.11 60.256 128.27 60.592 127.582 61.264C126.894 61.936 126.55 62.88 126.55 64.096C126.55 65.328 126.894 66.28 127.582 66.952C128.27 67.624 129.11 67.96 130.102 67.96C131.126 67.96 131.982 67.6 132.67 66.88Z" fill="white"/>
<path d="M151.434 64.096C151.434 65.856 150.882 67.328 149.778 68.512C148.69 69.68 147.314 70.264 145.65 70.264C144.018 70.264 142.706 69.696 141.714 68.56V74.32H139.194V58.216H141.546V59.872C142.442 58.592 143.81 57.952 145.65 57.952C147.314 57.952 148.69 58.544 149.778 59.728C150.882 60.896 151.434 62.352 151.434 64.096ZM147.81 66.88C148.498 66.16 148.842 65.24 148.842 64.12C148.842 63 148.498 62.08 147.81 61.36C147.122 60.624 146.266 60.256 145.242 60.256C144.25 60.256 143.41 60.592 142.722 61.264C142.034 61.936 141.69 62.88 141.69 64.096C141.69 65.328 142.034 66.28 142.722 66.952C143.41 67.624 144.25 67.96 145.242 67.96C146.266 67.96 147.122 67.6 147.81 66.88Z" fill="white"/>
<path d="M153.591 64.096C153.559 62.416 154.159 60.968 155.391 59.752C156.639 58.52 158.111 57.92 159.807 57.952C161.519 57.92 162.999 58.52 164.247 59.752C165.495 60.984 166.103 62.432 166.071 64.096C166.103 65.776 165.495 67.232 164.247 68.464C162.999 69.696 161.519 70.296 159.807 70.264C158.111 70.296 156.639 69.696 155.391 68.464C154.159 67.216 153.559 65.76 153.591 64.096ZM163.479 64.12C163.479 63.032 163.127 62.12 162.423 61.384C161.719 60.632 160.855 60.256 159.831 60.256C158.791 60.256 157.919 60.632 157.215 61.384C156.511 62.12 156.159 63.032 156.159 64.12C156.159 65.208 156.503 66.12 157.191 66.856C157.895 67.576 158.767 67.936 159.807 67.936C160.847 67.936 161.719 67.568 162.423 66.832C163.127 66.096 163.479 65.192 163.479 64.12Z" fill="white"/>
<path d="M175.704 58.216V60.448H174.936C173.912 60.448 173.08 60.736 172.44 61.312C171.8 61.888 171.48 62.688 171.48 63.712V70H168.96V58.216H171.312V59.752C172.192 58.648 173.336 58.096 174.744 58.096C175.064 58.096 175.384 58.136 175.704 58.216Z" fill="white"/>
<path d="M184.968 67.864V70C184.136 70.176 183.44 70.264 182.88 70.264C181.504 70.264 180.432 69.92 179.664 69.232C178.912 68.544 178.536 67.52 178.536 66.16V60.4H176.616V58.216H178.536V55.12H181.08V58.216H184.584V60.4H181.08V65.944C181.08 66.68 181.264 67.208 181.632 67.528C182.016 67.832 182.608 67.984 183.408 67.984C183.68 67.984 184.2 67.944 184.968 67.864Z" fill="white"/>
<path d="M194.417 70V54.16H200.201C201.801 54.16 203.097 54.616 204.089 55.528C205.081 56.424 205.577 57.584 205.577 59.008C205.577 60.432 205.073 61.6 204.065 62.512C203.073 63.424 201.785 63.88 200.201 63.88H196.961V70H194.417ZM196.961 61.624H200.153C201.033 61.624 201.721 61.392 202.217 60.928C202.713 60.464 202.961 59.832 202.961 59.032C202.961 58.232 202.713 57.6 202.217 57.136C201.721 56.656 201.033 56.416 200.153 56.416H196.961V61.624Z" fill="white"/>
<path d="M207.169 64.096C207.137 62.416 207.737 60.968 208.969 59.752C210.217 58.52 211.689 57.92 213.385 57.952C215.097 57.92 216.577 58.52 217.825 59.752C219.073 60.984 219.681 62.432 219.649 64.096C219.681 65.776 219.073 67.232 217.825 68.464C216.577 69.696 215.097 70.296 213.385 70.264C211.689 70.296 210.217 69.696 208.969 68.464C207.737 67.216 207.137 65.76 207.169 64.096ZM217.057 64.12C217.057 63.032 216.705 62.12 216.001 61.384C215.297 60.632 214.433 60.256 213.409 60.256C212.369 60.256 211.497 60.632 210.793 61.384C210.089 62.12 209.737 63.032 209.737 64.12C209.737 65.208 210.081 66.12 210.769 66.856C211.473 67.576 212.345 67.936 213.385 67.936C214.425 67.936 215.297 67.568 216.001 66.832C216.705 66.096 217.057 65.192 217.057 64.12Z" fill="white"/>
<path d="M229.282 58.216V60.448H228.514C227.49 60.448 226.658 60.736 226.018 61.312C225.378 61.888 225.058 62.688 225.058 63.712V70H222.538V58.216H224.89V59.752C225.77 58.648 226.914 58.096 228.322 58.096C228.642 58.096 228.962 58.136 229.282 58.216Z" fill="white"/>
<path d="M238.546 67.864V70C237.714 70.176 237.018 70.264 236.458 70.264C235.082 70.264 234.01 69.92 233.242 69.232C232.49 68.544 232.114 67.52 232.114 66.16V60.4H230.194V58.216H232.114V55.12H234.658V58.216H238.162V60.4H234.658V65.944C234.658 66.68 234.842 67.208 235.21 67.528C235.594 67.832 236.186 67.984 236.986 67.984C237.258 67.984 237.778 67.944 238.546 67.864Z" fill="white"/>
<path d="M250.461 62.872V70H248.109V68.68C247.229 69.736 245.973 70.264 244.341 70.264C243.109 70.264 242.117 69.952 241.365 69.328C240.613 68.704 240.237 67.88 240.237 66.856C240.237 65.832 240.629 65.016 241.413 64.408C242.197 63.8 243.253 63.496 244.581 63.496H247.917V62.728C247.917 61.912 247.693 61.288 247.245 60.856C246.813 60.424 246.197 60.208 245.397 60.208C244.197 60.208 243.109 60.792 242.133 61.96L240.669 60.472C241.821 58.792 243.477 57.952 245.637 57.952C247.109 57.952 248.277 58.384 249.141 59.248C250.021 60.112 250.461 61.32 250.461 62.872ZM247.917 65.536V65.32H244.893C243.501 65.32 242.805 65.8 242.805 66.76C242.805 67.24 242.989 67.624 243.357 67.912C243.741 68.184 244.245 68.32 244.869 68.32C245.733 68.32 246.453 68.056 247.029 67.528C247.621 67 247.917 66.336 247.917 65.536Z" fill="white"/>
<path d="M253.968 70V52H256.488V70H253.968Z" fill="white"/>
</g>
<defs>
<clipPath id="clip0">
<rect width="288" height="80" fill="white"/>
</clipPath>
</defs>
</svg>
