<svg width="24" height="24" viewBox="0 0 24 24" fill="none" xmlns="http://www.w3.org/2000/svg">
<path d="M10.66 20.4707C11.42 21.1707 12.59 21.1707 13.35 20.4807L13.45 20.3907L13.5104 20.3358C16.6334 17.4983 19.1102 15.248 20.565 13.0694H17.0666L15.7316 15.9189C15.5982 16.2035 15.3015 16.3748 14.9882 16.3479C14.675 16.321 14.4118 16.1016 14.329 15.7984L12.9004 10.5716L12.1699 12.5762C12.062 12.8723 11.7805 13.0694 11.4653 13.0694L9.75 13.1007C9.33579 13.1007 9 12.7649 9 12.3507C9 11.9364 9.33579 11.6007 9.75 11.6007H11.0249L12.2979 7.84387C12.4098 7.53702 12.7073 7.3378 13.0336 7.3513C13.3599 7.36479 13.64 7.58789 13.7261 7.90293L15.2383 13.4361L15.9106 12.0012C16.0341 11.7377 16.2988 11.5694 16.5898 11.5694H21.4029C21.827 10.6136 22.0367 9.64861 22 8.63065C21.94 6.93065 21.07 5.30065 19.66 4.34065C17.02 2.53065 13.76 3.38065 12 5.44065C10.24 3.38065 6.98 2.54065 4.34 4.34065C2.93 5.30065 2.06 6.93065 2 8.63065C1.87 12.5107 5.3 15.6207 10.55 20.3707L10.66 20.4707Z" fill="white"/>
</svg>
