<svg width="20" height="20" viewBox="0 0 20 20" fill="none" xmlns="http://www.w3.org/2000/svg">
<path fill-rule="evenodd" clip-rule="evenodd" d="M10 16.4C13.5346 16.4 16.4 13.5346 16.4 10C16.4 6.46538 13.5346 3.6 10 3.6C6.46538 3.6 3.6 6.46538 3.6 10C3.6 13.5346 6.46538 16.4 10 16.4ZM10 14.8C7.34903 14.8 5.2 12.651 5.2 10C5.2 7.34903 7.34903 5.2 10 5.2C12.651 5.2 14.8 7.34903 14.8 10C14.8 12.651 12.651 14.8 10 14.8ZM10 18C14.4183 18 18 14.4183 18 10C18 5.58172 14.4183 2 10 2C5.58172 2 2 5.58172 2 10C2 14.4183 5.58172 18 10 18ZM10 13.2C8.23269 13.2 6.8 11.7673 6.8 10C6.8 8.23269 8.23269 6.8 10 6.8C11.7673 6.8 13.2 8.23269 13.2 10C13.2 11.7673 11.7673 13.2 10 13.2Z" fill="#00888F"/>
</svg>
