<svg width="20" height="18" viewBox="0 0 20 18" fill="none" xmlns="http://www.w3.org/2000/svg">
<path fill-rule="evenodd" clip-rule="evenodd" d="M1.5 0C0.671573 0 0 0.671573 0 1.5C0 2.32843 0.671573 3 1.5 3H18.5C19.3284 3 20 2.32843 20 1.5C20 0.671573 19.3284 0 18.5 0H1.5ZM1 6C1 4.89543 1.89543 4 3 4H17C18.1046 4 19 4.89543 19 6V16C19 17.1046 18.1046 18 17 18H3C1.89543 18 1 17.1046 1 16V6ZM13.9442 9.75136L14.9446 8.75103C15.196 8.49955 15.6208 8.67838 15.6152 9.03046L15.6208 12.1544C15.6208 12.3779 15.4475 12.5512 15.224 12.5512H12.1056C11.7536 12.5456 11.5747 12.1209 11.8262 11.8694L12.8265 10.8691C10.9768 9.01928 7.9702 9.01928 6.12042 10.8691C5.67894 11.3105 5.33245 11.8247 5.10892 12.3723C4.99156 12.6574 4.70096 12.825 4.39918 12.825C3.82916 12.825 3.44915 12.2438 3.67269 11.7185C3.97446 11.0032 4.42154 10.3326 5.00274 9.75136C7.47282 7.28128 11.4741 7.28127 13.9442 9.75136Z" fill="white"/>
</svg>
