<svg width="116" height="32" viewBox="0 0 116 32" fill="none" xmlns="http://www.w3.org/2000/svg">
<g clip-path="url(#clip0)">
<path d="M7.43397 18.1479C8.05346 18.411 8.76146 18.674 9.46946 18.7616C9.11546 19.3753 8.76146 19.989 8.49596 20.6027C8.23046 21.2164 8.05346 21.9178 7.96496 22.6192C7.16847 22.6192 6.46047 22.4438 5.66398 22.1808C4.95598 21.9178 4.24798 21.5671 3.62848 21.1288C3.89398 19.6384 4.60198 18.1479 5.66398 17.0082C6.28347 17.5342 6.81447 17.8849 7.43397 18.1479ZM7.96496 7.89041C7.96496 7.10137 8.14196 6.4 8.31896 5.69863C8.49596 4.90959 8.84996 4.20822 9.20396 3.50685C8.40746 3.50685 7.61097 3.59452 6.81447 3.76986C6.10647 3.94521 5.39848 4.29589 4.69048 4.64658C4.33648 5.34795 3.98248 6.04931 3.80548 6.75068C3.62848 7.53973 3.53998 8.41644 3.53998 9.20548C4.24798 8.76712 4.95598 8.50411 5.75247 8.2411C6.46047 8.06575 7.16847 7.97808 7.96496 7.89041ZM3.27449 14.2027C2.92049 13.5014 2.56649 12.7123 2.38949 12.011C1.23899 13.1507 0.442498 14.5534 0 16.0438C0.442498 17.5342 1.23899 18.937 2.30099 20.0767C2.47799 19.2877 2.83199 18.5863 3.18599 17.8849C3.53998 17.1836 3.98248 16.5699 4.51348 16.0438C4.07098 15.5178 3.62848 14.9041 3.27449 14.2027ZM15.0449 26.389C14.6024 25.863 14.2484 25.2493 13.9829 24.6356C13.7174 24.0219 13.4519 23.3205 13.3634 22.6192C12.7439 23.0575 12.1244 23.3205 11.5049 23.5836C10.8855 23.8466 10.1775 24.0219 9.46946 24.1096C9.46946 24.8986 9.64646 25.6877 9.91196 26.389C10.1775 27.0904 10.5315 27.7918 10.974 28.4055C11.7704 28.2301 12.4784 28.0548 13.1864 27.7041C13.8944 27.4411 14.5139 26.9151 15.0449 26.389ZM7.96496 24.1973C7.16847 24.1973 6.46047 24.0219 5.75247 23.8466C4.95598 23.6712 4.24798 23.3205 3.53998 22.8822C3.53998 23.6712 3.62848 24.4603 3.89398 25.2493C4.07098 25.9507 4.42498 26.7397 4.77898 27.3534C5.48698 27.7041 6.19497 28.0548 6.90297 28.2301C7.69947 28.4055 8.49596 28.5808 9.29246 28.5808C8.84996 27.9671 8.49596 27.1781 8.31896 26.389C8.05346 25.6877 7.96496 24.8986 7.96496 24.1973ZM13.3634 9.46849C13.4519 8.76712 13.7174 8.06575 13.9829 7.45205C14.2484 6.83836 14.6024 6.22466 15.0449 5.69863C13.8944 4.64658 12.4784 3.94521 10.8855 3.68219C10.443 4.29589 10.089 4.99726 9.82346 5.7863C9.55796 6.48767 9.46946 7.27671 9.38096 8.06575C10.089 8.15342 10.797 8.32877 11.4164 8.59178C12.1244 8.76712 12.7439 9.03014 13.3634 9.46849ZM28.4969 10.9589C27.8774 10.5205 27.1694 10.1699 26.4614 9.90685C25.7534 9.64384 24.9569 9.55616 24.1604 9.46849C24.0719 10.1699 23.8949 10.8712 23.6294 11.4849C23.3639 12.0986 23.0099 12.7123 22.6559 13.326C23.3639 13.4137 24.0719 13.6767 24.6914 13.9397C25.3109 14.2027 25.9304 14.5534 26.4614 14.9918C27.5234 13.8521 28.2314 12.4493 28.4969 10.9589ZM24.2489 7.89041C25.0454 7.89041 25.7534 8.06575 26.4614 8.2411C27.2579 8.41644 27.9659 8.76712 28.6739 9.20548C28.6739 8.41644 28.5854 7.6274 28.3199 6.83836C28.1429 6.13699 27.7889 5.34795 27.4349 4.73425C26.7269 4.38356 26.0189 4.03288 25.3109 3.85753C24.6029 3.59452 23.8064 3.50685 23.0099 3.50685C23.4524 4.20822 23.7179 4.99726 23.8949 5.69863C24.0719 6.4 24.2489 7.18904 24.2489 7.89041ZM22.6559 18.7616C23.0984 19.3753 23.3639 19.989 23.6294 20.6027C23.8949 21.2164 24.0719 21.9178 24.1604 22.6192C24.9569 22.6192 25.7534 22.4438 26.4614 22.1808C27.1694 21.9178 27.8774 21.5671 28.4969 21.1288C28.3199 20.3397 28.1429 19.6384 27.7889 18.937C27.4349 18.2356 26.9924 17.6219 26.4614 17.0082C25.9304 17.4466 25.3109 17.7973 24.6914 18.0603C24.0719 18.411 23.3639 18.674 22.6559 18.7616ZM16.1069 4.5589C16.6379 4.03288 17.2574 3.59452 17.9654 3.24384C18.6734 2.89315 19.3814 2.54247 20.1779 2.36712C19.5584 1.75342 18.9389 1.31507 18.2309 0.876712C17.5229 0.526027 16.8149 0.175342 16.1069 0C14.6024 0.438356 13.1864 1.2274 12.0359 2.36712C12.8324 2.54247 13.5404 2.89315 14.2484 3.24384C14.9564 3.59452 15.5759 4.03288 16.1069 4.5589ZM17.1689 5.69863C17.6114 6.22466 17.9654 6.83836 18.2309 7.45205C18.4964 8.06575 18.7619 8.76712 18.8504 9.46849C19.4699 9.03014 20.0894 8.76712 20.7089 8.50411C21.3284 8.2411 22.0364 8.06575 22.7444 7.97808C22.7444 7.18904 22.5674 6.4 22.3019 5.69863C22.0364 4.99726 21.6824 4.29589 21.2399 3.68219C20.4434 3.85753 19.7354 4.03288 19.0274 4.38356C18.3194 4.73425 17.6999 5.1726 17.1689 5.69863ZM16.1069 27.5288C15.5759 28.0548 14.9564 28.4932 14.2484 28.8438C13.5404 29.1945 12.8324 29.5452 12.0359 29.7206C12.6554 30.2466 13.2749 30.7726 13.9829 31.1233C14.6909 31.474 15.3989 31.8247 16.1069 32C17.6114 31.5616 19.0274 30.7726 20.1779 29.6329C19.3814 29.4575 18.6734 29.1068 17.9654 28.7562C17.2574 28.4932 16.6379 28.0548 16.1069 27.5288ZM8.49596 11.4849C8.23046 10.8712 8.05346 10.1699 7.96496 9.46849C7.16847 9.46849 6.37197 9.64384 5.66398 9.90685C4.95598 10.1699 4.24798 10.5205 3.62848 10.9589C3.80548 11.7479 3.98248 12.4493 4.33648 13.1507C4.69048 13.8521 5.13298 14.4658 5.66398 15.0795C6.19497 14.6411 6.81447 14.2904 7.43397 14.0274C8.05346 13.7644 8.76146 13.5014 9.46946 13.4137C9.11546 12.7123 8.76146 12.0986 8.49596 11.4849ZM18.8504 22.6192C18.7619 23.3205 18.4964 24.0219 18.2309 24.6356C17.9654 25.2493 17.6114 25.863 17.1689 26.389C18.3194 27.4411 19.7354 28.1425 21.3284 28.4055C21.7709 27.7918 22.1249 27.0904 22.3904 26.3014C22.6559 25.6 22.7444 24.811 22.8329 24.0219C22.1249 23.9342 21.4169 23.7589 20.7974 23.4959C20.0009 23.4082 19.3814 23.0575 18.8504 22.6192ZM29.8244 12.011C29.6474 12.8 29.2934 13.5014 28.9394 14.2027C28.5854 14.9041 28.1429 15.5178 27.6119 16.0438C28.1429 16.5699 28.5854 17.1836 28.9394 17.8849C29.2934 18.5863 29.6474 19.3753 29.8244 20.0767C30.9749 18.937 31.7714 17.5342 32.1254 16.0438C31.7714 14.5534 30.9749 13.1507 29.8244 12.011ZM24.2489 24.1973C24.2489 24.9863 24.0719 25.6877 23.8949 26.389C23.7179 27.1781 23.3639 27.8794 22.9214 28.5808C23.7179 28.5808 24.5144 28.4932 25.3109 28.2301C26.0189 28.0548 26.7269 27.7041 27.4349 27.3534C27.7889 26.6521 28.1429 25.9507 28.3199 25.2493C28.4969 24.4603 28.6739 23.6712 28.6739 22.8822C27.9659 23.3205 27.2579 23.5836 26.4614 23.8466C25.7534 24.0219 25.0454 24.1096 24.2489 24.1973Z" fill="white"/>
<path d="M108.238 7.34981L111.011 14.3488H111.016L113.874 7.34981H116.081L111.367 18.0468C111.142 18.5859 110.838 19.0889 110.464 19.5393C110.147 19.9111 109.75 20.2073 109.302 20.4058C108.836 20.5992 108.333 20.6943 107.828 20.6849C107.561 20.6852 107.294 20.669 107.029 20.6362C106.759 20.6035 106.492 20.5479 106.232 20.4698V18.7456C106.536 18.7751 106.786 18.793 106.974 18.8084C107.161 18.8237 107.296 18.8237 107.375 18.8237C107.67 18.8297 107.964 18.7865 108.244 18.6957C108.508 18.6073 108.747 18.4577 108.941 18.2593C109.172 18.0132 109.356 17.7273 109.483 17.4157L109.87 16.5197L106.758 9.12901H102.758V13.6449C102.743 13.984 102.818 14.3213 102.975 14.6228C103.118 14.8684 103.344 15.0557 103.613 15.1514C103.952 15.267 104.31 15.3199 104.669 15.3076C104.818 15.3076 104.99 15.2999 105.205 15.2807C105.419 15.2615 105.664 15.2385 105.95 15.209V16.9498C105.625 17.0189 105.321 17.0701 105.034 17.1098C104.77 17.1446 104.503 17.163 104.236 17.1649C103.578 17.1833 102.924 17.0574 102.321 16.7962C101.804 16.567 101.376 16.1787 101.099 15.689C100.817 15.1936 100.669 14.5703 100.669 13.8215V9.12901H99.0915V7.34981H100.669V4.82821H102.758V7.34981H108.238Z" fill="white"/>
<path d="M50.8107 16.9473V7.34725H52.8751V16.9473H50.8107Z" fill="white"/>
<path d="M51.1359 2.58565C51.3552 2.46196 51.6035 2.39793 51.8558 2.40005C52.1004 2.40037 52.341 2.46246 52.5547 2.58047C52.7685 2.69849 52.9485 2.86854 53.0777 3.07461C53.2075 3.28295 53.2755 3.52342 53.2738 3.76837C53.2765 4.01149 53.2094 4.25036 53.0803 4.45701C52.9562 4.65821 52.782 4.82438 52.5745 4.93957C52.3533 5.05721 52.1062 5.11877 51.8552 5.11877C51.6042 5.11877 51.3571 5.05721 51.1359 4.93957C50.9286 4.82406 50.7545 4.65796 50.6301 4.45701C50.5014 4.25016 50.4343 4.01143 50.4366 3.76837C50.4352 3.52382 50.5022 3.28368 50.6301 3.07461C50.7539 2.87149 50.928 2.70317 51.1359 2.58565Z" fill="white"/>
<path d="M70.1553 15.1488C70.4951 15.2639 70.8531 15.3168 71.212 15.305L71.2094 15.3076C71.3578 15.3063 71.5307 15.2973 71.7449 15.2807C71.9532 15.2645 72.1921 15.2398 72.4675 15.2114L72.4906 15.209V16.9498C72.1664 17.0189 71.861 17.0723 71.5746 17.1098C71.3098 17.1453 71.043 17.1637 70.7759 17.1649C70.1181 17.1826 69.4645 17.0568 68.8612 16.7962C68.3453 16.5658 67.9172 16.1779 67.6393 15.689C67.358 15.1936 67.2097 14.5703 67.2097 13.8215V9.12901H65.633V7.34981H67.2135V4.82693H69.3012V7.34981H72.1784V9.12901H69.3012V13.6423C69.2858 13.9815 69.3605 14.3187 69.5179 14.6202C69.6608 14.8656 69.8866 15.0529 70.1553 15.1488Z" fill="white"/>
<path d="M77.2219 7.58533C77.7233 7.3538 78.2715 7.23909 78.8244 7.24997L78.8154 7.25253C78.9551 7.25161 79.0948 7.26016 79.2334 7.27813C79.3612 7.29605 79.4863 7.32165 79.6037 7.34981V9.17125H78.9741C78.4693 9.16159 77.969 9.26759 77.5122 9.48101C77.0956 9.67849 76.7459 9.99205 76.5059 10.3834C76.2497 10.8222 76.1215 11.3229 76.1356 11.8298V16.9498H74.0712V7.34981H76.0065V8.59909C76.3245 8.16999 76.7412 7.82243 77.2219 7.58533Z" fill="white"/>
<path d="M80.9288 16.9473V7.34725H82.9932V16.9473H80.9288Z" fill="white"/>
<path d="M81.2539 2.58693C81.473 2.46266 81.7215 2.3986 81.9739 2.40133C82.2186 2.40117 82.4593 2.46305 82.6732 2.58111C82.887 2.69917 83.0669 2.86948 83.1957 3.07589C83.3263 3.28398 83.3948 3.52453 83.3932 3.76965C83.3956 4.01234 83.3285 4.25073 83.1996 4.45701C83.0752 4.65796 82.9011 4.82406 82.6938 4.93957C82.4724 5.05722 82.2251 5.11877 81.9739 5.11877C81.7227 5.11877 81.4754 5.05722 81.2539 4.93957C81.0467 4.82406 80.8726 4.65796 80.7482 4.45701C80.6202 4.25031 80.5532 4.0122 80.5546 3.76965C80.5536 3.52514 80.6205 3.28507 80.7482 3.07589C80.8716 2.87249 81.0458 2.70408 81.2539 2.58693Z" fill="white"/>
<path d="M88.0496 7.49544C88.6757 7.24706 89.3456 7.1253 90.0198 7.13733L90.0185 7.13477C90.584 7.12976 91.1462 7.21933 91.6817 7.39973C92.184 7.57192 92.6511 7.83203 93.0609 8.16773C93.4705 8.50559 93.8195 8.90981 94.0931 9.36325L92.6339 10.4973C91.9449 9.52026 91.0778 9.03173 90.0327 9.03173C89.6181 9.02523 89.2063 9.1005 88.8212 9.25317C88.4502 9.40628 88.117 9.63728 87.8445 9.93029C87.5677 10.2188 87.3514 10.5591 87.2084 10.9313C87.064 11.3178 86.9927 11.7274 86.9981 12.1396C86.9923 12.5605 87.0636 12.979 87.2084 13.3748C87.3499 13.7515 87.5662 14.0962 87.8445 14.3885C88.4208 14.9748 89.1519 15.2679 90.0379 15.2679C90.5351 15.2725 91.0247 15.1466 91.4572 14.9031C91.9246 14.6307 92.3277 14.2618 92.639 13.8215L94.0983 14.9364C93.1719 16.422 91.812 17.1649 90.0185 17.1649C89.345 17.1777 88.6758 17.0571 88.0499 16.81C87.424 16.563 86.8541 16.1945 86.3736 15.7261C85.8929 15.261 85.5136 14.7029 85.2593 14.0864C85.0049 13.4699 84.8809 12.8081 84.895 12.1421C84.8888 11.4749 85.0151 10.8129 85.2666 10.194C85.5212 9.58803 85.8979 9.04007 86.3736 8.58373C86.8536 8.11383 87.4234 7.74383 88.0496 7.49544Z" fill="white"/>
<path d="M95.7059 16.9524V7.35237H97.7703V16.9524H95.7059Z" fill="white"/>
<path d="M96.031 2.59077C96.2501 2.46763 96.498 2.40404 96.7497 2.40645C96.9944 2.40566 97.2352 2.46714 97.4492 2.58502C97.6631 2.70289 97.8429 2.87322 97.9716 3.07973C98.1018 3.28797 98.1702 3.52842 98.169 3.77349C98.1717 4.01661 98.1046 4.25548 97.9754 4.46213C97.851 4.66305 97.6769 4.82914 97.4697 4.94469C97.2493 5.06504 97.0013 5.12678 96.7497 5.12389C96.4985 5.12756 96.2507 5.06577 96.031 4.94469C95.8233 4.82988 95.649 4.66363 95.5253 4.46213C95.3962 4.25539 95.3287 4.01667 95.3304 3.77349C95.3296 3.52883 95.397 3.2887 95.5253 3.07973C95.6484 2.87607 95.8226 2.70759 96.031 2.59077Z" fill="white"/>
<path fill-rule="evenodd" clip-rule="evenodd" d="M40.7314 8.52229C41.4733 7.63525 42.7532 7.13477 43.766 7.13477C44.437 7.12523 45.1033 7.2482 45.7259 7.49652C46.3486 7.74484 46.9152 8.11354 47.3929 8.58117C47.8833 9.03548 48.2719 9.5871 48.5333 10.2002C48.7947 10.8132 48.9231 11.474 48.9102 12.1396C48.9165 12.809 48.7871 13.4728 48.5296 14.0916C48.2626 14.703 47.8763 15.2559 47.3929 15.7185C46.9152 16.1861 46.3486 16.5548 45.7259 16.8031C45.1033 17.0514 44.437 17.1744 43.766 17.1649C43.0861 17.1615 42.413 17.0312 41.7816 16.7808C41.1685 16.5286 40.611 16.1598 40.1404 15.6954C39.6645 15.2398 39.2877 14.6922 39.0334 14.0865C38.7839 13.4676 38.6594 12.8061 38.667 12.1396V2.69701H40.7314V8.52229ZM42.5945 9.24933C42.9743 9.09688 43.3795 9.01614 43.7892 9.01125H43.7944C44.1962 9.0161 44.5934 9.0969 44.9646 9.24933C45.3283 9.40797 45.6548 9.63986 45.9233 9.93029C46.2042 10.2159 46.4237 10.5551 46.5684 10.9274C46.719 11.321 46.7934 11.7391 46.7878 12.1601C46.7925 12.5751 46.7181 12.9872 46.5684 13.3748C46.4223 13.7513 46.2031 14.0958 45.9233 14.3885C45.65 14.6733 45.32 14.8986 44.9543 15.0503C44.1931 15.3405 43.3505 15.3405 42.5893 15.0503C42.2263 14.8972 41.8987 14.672 41.6268 14.3885C41.3474 14.0969 41.1305 13.752 40.9894 13.3748C40.8458 12.9858 40.7746 12.5742 40.7791 12.1601C40.7737 11.74 40.845 11.3223 40.9894 10.9274C41.2805 10.18 41.8574 9.57688 42.5945 9.24933Z" fill="white"/>
<path fill-rule="evenodd" clip-rule="evenodd" d="M59.8811 7.13221C59.2021 7.12493 58.5281 7.24883 57.8967 7.49701C57.2831 7.74738 56.7251 8.11487 56.2542 8.57861C55.7787 9.03507 55.402 9.58299 55.1472 10.1889C54.6535 11.4419 54.6535 12.8334 55.1472 14.0865C55.402 14.6919 55.7787 15.2394 56.2542 15.6954C56.7249 16.1603 57.283 16.5291 57.8967 16.7808C58.5273 17.0338 59.201 17.1641 59.8811 17.1649C60.5549 17.1736 61.2236 17.0496 61.8487 16.8001C62.4672 16.5494 63.0307 16.1821 63.508 15.7185C64.228 15.0125 64.7203 14.1102 64.9225 13.1261C65.1246 12.1421 65.0275 11.1206 64.6434 10.1914C64.3798 9.58334 63.9934 9.03531 63.508 8.58117C63.0303 8.11354 62.4637 7.74484 61.841 7.49652C61.2183 7.2482 60.5521 7.12523 59.8811 7.13477V7.13221ZM61.0707 9.24677C60.7011 9.08891 60.3028 9.00789 59.9005 9.00869C59.4902 9.00783 59.0839 9.08879 58.7057 9.24677C58.337 9.40375 58.0056 9.63574 57.7329 9.92773C57.4547 10.214 57.2379 10.5532 57.0955 10.9249C56.9517 11.32 56.8804 11.7374 56.8852 12.1575C56.8813 12.5716 56.9526 12.9831 57.0955 13.3722C57.2363 13.7496 57.4531 14.0946 57.7329 14.386C58.003 14.6715 58.3311 14.897 58.6954 15.0477C59.4566 15.3379 60.2992 15.3379 61.0604 15.0477C61.4272 14.8981 61.7576 14.6725 62.0294 14.386C62.3091 14.0931 62.5282 13.7487 62.6745 13.3722C62.9669 12.5822 62.9669 11.7148 62.6745 10.9249C62.5263 10.5543 62.3072 10.2157 62.0294 9.92773C61.76 9.63827 61.4337 9.40653 61.0707 9.24677Z" fill="white"/>
<path d="M38.6667 26.7328L39.3917 26.1856C39.8557 26.8576 40.4131 27.1936 41.064 27.1936C41.3927 27.1936 41.6569 27.1136 41.8567 26.9536C42.0629 26.7936 42.166 26.5792 42.166 26.3104C42.166 26.0928 42.0983 25.9232 41.963 25.8016C41.8277 25.6736 41.5828 25.5264 41.2283 25.36L40.5227 25.0336C40.0264 24.8096 39.6527 24.5632 39.4013 24.2944C39.1564 24.0192 39.034 23.68 39.034 23.2768C39.034 22.7712 39.2273 22.3584 39.614 22.0384C40.0007 21.7184 40.4776 21.5584 41.0447 21.5584C41.4893 21.5584 41.8921 21.6608 42.253 21.8656C42.6203 22.0704 42.9039 22.3456 43.1037 22.6912L42.3883 23.2384C42.0403 22.7264 41.5924 22.4704 41.0447 22.4704C40.7611 22.4704 40.5291 22.5376 40.3487 22.672C40.1682 22.8064 40.078 22.9952 40.078 23.2384C40.0844 23.3536 40.0973 23.4496 40.1167 23.5264C40.1424 23.5968 40.2037 23.6736 40.3003 23.7568C40.397 23.8336 40.4647 23.8816 40.5033 23.9008C40.542 23.92 40.6677 23.984 40.8803 24.0928C40.919 24.112 40.948 24.128 40.9673 24.1408L41.6827 24.4672C42.2176 24.7104 42.6042 24.9696 42.8427 25.2448C43.0876 25.52 43.21 25.8624 43.21 26.272C43.21 26.816 43.007 27.2576 42.601 27.5968C42.2014 27.936 41.6923 28.1056 41.0737 28.1056C40.5581 28.1056 40.0909 27.984 39.672 27.7408C39.2531 27.4976 38.918 27.1616 38.6667 26.7328Z" fill="white"/>
<path d="M44.4047 26.0224V23.2864H45.4101V26.0992C45.4101 26.4192 45.51 26.6784 45.7097 26.8768C45.9095 27.0752 46.1673 27.1744 46.4831 27.1744C46.786 27.1744 47.0341 27.0752 47.2274 26.8768C47.4272 26.6784 47.5271 26.4192 47.5271 26.0992V23.2864H48.5421V26.0224C48.5421 26.6432 48.3455 27.1456 47.9524 27.5296C47.5657 27.9136 47.076 28.1056 46.4831 28.1056C45.8773 28.1056 45.3778 27.9168 44.9847 27.5392C44.5981 27.1552 44.4047 26.6496 44.4047 26.0224Z" fill="white"/>
<path d="M54.8961 25.6384C54.8961 26.3424 54.6738 26.9312 54.2291 27.4048C53.7909 27.872 53.2366 28.1056 52.5664 28.1056C51.9091 28.1056 51.3806 27.8784 50.9811 27.424V29.728H49.9661V23.2864H50.9134V23.9488C51.2743 23.4368 51.8253 23.1808 52.5664 23.1808C53.2366 23.1808 53.7909 23.4176 54.2291 23.8912C54.6738 24.3584 54.8961 24.9408 54.8961 25.6384ZM53.4364 26.752C53.7135 26.464 53.8521 26.096 53.8521 25.648C53.8521 25.2 53.7135 24.832 53.4364 24.544C53.1593 24.2496 52.8145 24.1024 52.4021 24.1024C52.0025 24.1024 51.6642 24.2368 51.3871 24.5056C51.11 24.7744 50.9714 25.152 50.9714 25.6384C50.9714 26.1312 51.11 26.512 51.3871 26.7808C51.6642 27.0496 52.0025 27.184 52.4021 27.184C52.8145 27.184 53.1593 27.04 53.4364 26.752Z" fill="white"/>
<path d="M60.9944 25.6384C60.9944 26.3424 60.7721 26.9312 60.3274 27.4048C59.8892 27.872 59.335 28.1056 58.6647 28.1056C58.0074 28.1056 57.479 27.8784 57.0794 27.424V29.728H56.0644V23.2864H57.0117V23.9488C57.3726 23.4368 57.9236 23.1808 58.6647 23.1808C59.335 23.1808 59.8892 23.4176 60.3274 23.8912C60.7721 24.3584 60.9944 24.9408 60.9944 25.6384ZM59.5347 26.752C59.8118 26.464 59.9504 26.096 59.9504 25.648C59.9504 25.2 59.8118 24.832 59.5347 24.544C59.2576 24.2496 58.9128 24.1024 58.5004 24.1024C58.1008 24.1024 57.7625 24.2368 57.4854 24.5056C57.2083 24.7744 57.0697 25.152 57.0697 25.6384C57.0697 26.1312 57.2083 26.512 57.4854 26.7808C57.7625 27.0496 58.1008 27.184 58.5004 27.184C58.9128 27.184 59.2576 27.04 59.5347 26.752Z" fill="white"/>
<path d="M61.863 25.6384C61.8502 24.9664 62.0918 24.3872 62.588 23.9008C63.0907 23.408 63.6836 23.168 64.3667 23.1808C65.0563 23.168 65.6524 23.408 66.155 23.9008C66.6577 24.3936 66.9026 24.9728 66.8897 25.6384C66.9026 26.3104 66.6577 26.8928 66.155 27.3856C65.6524 27.8784 65.0563 28.1184 64.3667 28.1056C63.6836 28.1184 63.0907 27.8784 62.588 27.3856C62.0918 26.8864 61.8502 26.304 61.863 25.6384ZM65.8457 25.648C65.8457 25.2128 65.7039 24.848 65.4204 24.5536C65.1368 24.2528 64.7888 24.1024 64.3764 24.1024C63.9575 24.1024 63.6063 24.2528 63.3227 24.5536C63.0392 24.848 62.8974 25.2128 62.8974 25.648C62.8974 26.0832 63.0359 26.448 63.313 26.7424C63.5966 27.0304 63.9478 27.1744 64.3667 27.1744C64.7856 27.1744 65.1368 27.0272 65.4204 26.7328C65.7039 26.4384 65.8457 26.0768 65.8457 25.648Z" fill="white"/>
<path d="M70.7697 23.2864V24.1792H70.4603C70.0479 24.1792 69.7128 24.2944 69.455 24.5248C69.1972 24.7552 69.0683 25.0752 69.0683 25.4848V28H68.0533V23.2864H69.0007V23.9008C69.3551 23.4592 69.8159 23.2384 70.383 23.2384C70.5119 23.2384 70.6408 23.2544 70.7697 23.2864Z" fill="white"/>
<path d="M74.501 27.1456V28C74.1659 28.0704 73.8856 28.1056 73.66 28.1056C73.1058 28.1056 72.674 27.968 72.3647 27.6928C72.0618 27.4176 71.9103 27.008 71.9103 26.464V24.16H71.137V23.2864H71.9103V22.048H72.935V23.2864H74.3463V24.16H72.935V26.3776C72.935 26.672 73.0091 26.8832 73.1573 27.0112C73.312 27.1328 73.5504 27.1936 73.8727 27.1936C73.9822 27.1936 74.1917 27.1776 74.501 27.1456Z" fill="white"/>
<path d="M78.3069 28V21.664H80.6365C81.281 21.664 81.803 21.8464 82.2025 22.2112C82.6021 22.5696 82.8019 23.0336 82.8019 23.6032C82.8019 24.1728 82.5989 24.64 82.1929 25.0048C81.7933 25.3696 81.2745 25.552 80.6365 25.552H79.3315V28H78.3069ZM79.3315 24.6496H80.6172C80.9716 24.6496 81.2488 24.5568 81.4485 24.3712C81.6483 24.1856 81.7482 23.9328 81.7482 23.6128C81.7482 23.2928 81.6483 23.04 81.4485 22.8544C81.2488 22.6624 80.9716 22.5664 80.6172 22.5664H79.3315V24.6496Z" fill="white"/>
<path d="M83.4431 25.6384C83.4302 24.9664 83.6719 24.3872 84.1681 23.9008C84.6708 23.408 85.2637 23.168 85.9468 23.1808C86.6363 23.168 87.2325 23.408 87.7351 23.9008C88.2378 24.3936 88.4827 24.9728 88.4698 25.6384C88.4827 26.3104 88.2378 26.8928 87.7351 27.3856C87.2325 27.8784 86.6363 28.1184 85.9468 28.1056C85.2637 28.1184 84.6708 27.8784 84.1681 27.3856C83.6719 26.8864 83.4302 26.304 83.4431 25.6384ZM87.4258 25.648C87.4258 25.2128 87.284 24.848 87.0005 24.5536C86.7169 24.2528 86.3689 24.1024 85.9564 24.1024C85.5376 24.1024 85.1863 24.2528 84.9028 24.5536C84.6192 24.848 84.4774 25.2128 84.4774 25.648C84.4774 26.0832 84.616 26.448 84.8931 26.7424C85.1767 27.0304 85.5279 27.1744 85.9468 27.1744C86.3657 27.1744 86.7169 27.0272 87.0005 26.7328C87.284 26.4384 87.4258 26.0768 87.4258 25.648Z" fill="white"/>
<path d="M92.3497 23.2864V24.1792H92.0404C91.628 24.1792 91.2929 24.2944 91.0351 24.5248C90.7773 24.7552 90.6484 25.0752 90.6484 25.4848V28H89.6334V23.2864H90.5807V23.9008C90.9352 23.4592 91.396 23.2384 91.9631 23.2384C92.092 23.2384 92.2208 23.2544 92.3497 23.2864Z" fill="white"/>
<path d="M96.0811 27.1456V28C95.746 28.0704 95.4656 28.1056 95.2401 28.1056C94.6859 28.1056 94.2541 27.968 93.9447 27.6928C93.6419 27.4176 93.4904 27.008 93.4904 26.464V24.16H92.7171V23.2864H93.4904V22.048H94.5151V23.2864H95.9264V24.16H94.5151V26.3776C94.5151 26.672 94.5892 26.8832 94.7374 27.0112C94.8921 27.1328 95.1305 27.1936 95.4527 27.1936C95.5623 27.1936 95.7717 27.1776 96.0811 27.1456Z" fill="white"/>
<path d="M100.88 25.1488V28H99.9326V27.472C99.5782 27.8944 99.0723 28.1056 98.415 28.1056C97.9187 28.1056 97.5192 27.9808 97.2163 27.7312C96.9134 27.4816 96.762 27.152 96.762 26.7424C96.762 26.3328 96.9199 26.0064 97.2356 25.7632C97.5514 25.52 97.9767 25.3984 98.5116 25.3984H99.8553V25.0912C99.8553 24.7648 99.7651 24.5152 99.5846 24.3424C99.4106 24.1696 99.1625 24.0832 98.8403 24.0832C98.357 24.0832 97.9187 24.3168 97.5256 24.784L96.936 24.1888C97.4 23.5168 98.067 23.1808 98.937 23.1808C99.5299 23.1808 100 23.3536 100.348 23.6992C100.703 24.0448 100.88 24.528 100.88 25.1488ZM99.8553 26.2144V26.128H98.6373C98.0766 26.128 97.7963 26.32 97.7963 26.704C97.7963 26.896 97.8704 27.0496 98.0186 27.1648C98.1733 27.2736 98.3763 27.328 98.6276 27.328C98.9756 27.328 99.2656 27.2224 99.4976 27.0112C99.7361 26.8 99.8553 26.5344 99.8553 26.2144Z" fill="white"/>
<path d="M102.293 28V20.8H103.308V28H102.293Z" fill="white"/>
</g>
<defs>
<clipPath id="clip0">
<rect width="116" height="32" fill="white"/>
</clipPath>
</defs>
</svg>