<svg width="24" height="24" viewBox="0 0 24 24" fill="none" xmlns="http://www.w3.org/2000/svg">
<path d="M16 13H14C13.45 13 13 13.45 13 14V16C13 16.55 13.45 17 14 17H16C16.55 17 17 16.55 17 16V14C17 13.45 16.55 13 16 13ZM16 3V4H8V3C8 2.45 7.55 2 7 2C6.45 2 6 2.45 6 3V4H5C3.89 4 3.01 4.9 3.01 6L3 19C3 20.1 3.89 21 5 21H19C20.1 21 21 20.1 21 19V6C21 4.9 20.1 4 19 4H18V3C18 2.45 17.55 2 17 2C16.45 2 16 2.45 16 3ZM18 19H6C5.45 19 5 18.55 5 18V9H19V18C19 18.55 18.55 19 18 19Z" fill="#9F9FA7"/>
</svg>
