<svg width="24" height="24" viewBox="0 0 24 24" fill="none" xmlns="http://www.w3.org/2000/svg">
<path fill-rule="evenodd" clip-rule="evenodd" d="M4 19V5C4 2.799 5.794 2 7 2H18C19.103 2 20 2.897 20 4V18H7.012C6.55 18.012 6 18.194 6 19C6 19.806 6.55 19.988 7.012 20H20V22H7C5.794 22 4 21.201 4 19ZM12.2211 6.79396C12.1322 6.4827 11.8536 6.26363 11.5302 6.2506C11.2067 6.23758 10.9114 6.43355 10.7978 6.73665L9.48025 10.25H8C7.58579 10.25 7.25 10.5858 7.25 11C7.25 11.4142 7.58579 11.75 8 11.75H10C10.3126 11.75 10.5925 11.5561 10.7022 11.2633L11.4037 9.39288L12.7789 14.206C12.8638 14.5034 13.1226 14.7182 13.4306 14.7468C13.7386 14.7754 14.0325 14.612 14.1708 14.3354L15.4635 11.75H17C17.4142 11.75 17.75 11.4142 17.75 11C17.75 10.5858 17.4142 10.25 17 10.25H15C14.7159 10.25 14.4562 10.4105 14.3292 10.6646L13.6915 11.94L12.2211 6.79396Z" fill="white"/>
</svg>
